# Blender v3.3.1 OBJ File: 'untitled.blend'
# www.blender.org
o Icosphere.001
v -0.136866 4.712164 -3.310144
v -0.136866 4.813030 -3.546139
v 0.107220 4.844201 -3.619064
v 0.258074 4.762599 -3.428141
v 0.107220 4.680996 -3.237218
v 0.258525 4.762787 -3.427704
v 0.393453 4.963536 -3.341900
v 0.325989 5.006006 -3.097949
v 0.149367 4.831502 -3.032981
v 0.107672 4.681185 -3.236780
v -0.137039 4.712274 -3.309517
v 0.107047 4.681105 -3.236593
v 0.148739 4.831422 -3.032794
v -0.069575 4.955495 -2.979764
v -0.246197 4.881855 -3.150790
v -0.137427 4.813349 -3.546002
v -0.137427 4.712483 -3.310008
v -0.246586 4.882065 -3.151283
v -0.314049 5.087740 -3.289173
v -0.246586 5.045267 -3.533124
v 0.107047 4.844727 -3.619417
v -0.137039 4.813559 -3.546493
v -0.246197 5.045477 -3.533616
v -0.069575 5.219983 -3.598583
v 0.148739 5.095910 -3.651613
v 0.393453 4.963795 -3.342506
v 0.258525 4.763045 -3.428307
v 0.107672 4.844647 -3.619230
v 0.149367 5.095829 -3.651425
v 0.325989 5.169468 -3.480399
v -0.069228 4.956011 -2.979543
v 0.149086 4.831938 -3.032573
v 0.325708 5.006444 -3.097540
v 0.216550 5.238362 -3.084663
v -0.027537 5.207194 -3.011739
v -0.313942 5.088126 -3.288650
v -0.246479 4.882452 -3.150757
v -0.069856 4.956091 -2.979731
v -0.028161 5.207273 -3.011926
v -0.179015 5.288876 -3.202849
v -0.069856 5.220419 -3.598175
v -0.246479 5.045915 -3.533207
v -0.313942 5.088385 -3.289255
v -0.179015 5.289134 -3.203453
v -0.028161 5.370736 -3.394376
v 0.325708 5.170066 -3.480366
v 0.149086 5.096426 -3.651392
v -0.069228 5.220499 -3.598362
v -0.027537 5.370816 -3.394563
v 0.216550 5.339647 -3.321639
v 0.326097 5.006654 -3.098032
v 0.393560 4.964181 -3.341983
v 0.326097 5.169856 -3.479873
v 0.216937 5.339437 -3.321148
v 0.216937 5.238572 -3.085154
v -0.027709 5.207720 -3.012092
v 0.216376 5.238891 -3.085017
v 0.216376 5.339756 -3.321012
v -0.027709 5.370924 -3.393938
v -0.178563 5.289321 -3.203015
vn 0.6068 -0.7309 -0.3124
vn -0.4909 -0.5901 -0.6410
vn 0.1875 -0.9581 0.2168
vn 0.1877 -0.5033 -0.8435
vn 0.3034 -0.5393 0.7856
vn 0.7940 -0.0544 0.6054
vn 0.9822 -0.1724 -0.0740
vn -0.3046 -0.1949 0.9324
vn -0.9823 0.1723 0.0739
vn -0.3032 0.5393 -0.7856
vn -0.7944 -0.4000 0.4571
vn -0.7939 0.0544 -0.6056
vn 0.3046 0.1950 -0.9323
vn 0.7945 0.3999 -0.4570
vn 0.4910 0.5894 0.6415
vn -0.1887 0.5037 0.8430
vn -0.6074 0.7309 0.3112
vn -0.1871 0.9578 -0.2180
vn 0.4915 0.8708 -0.0161
vn 0.0000 -0.9195 -0.3930
vn 0.7236 -0.6178 0.3077
vn -0.2764 -0.7455 0.6065
vn -0.8944 -0.4112 -0.1758
vn -0.2764 -0.0769 -0.9580
vn 0.7236 -0.2046 -0.6592
vn 0.2764 0.0769 0.9580
vn -0.7236 0.2046 0.6592
vn -0.7236 0.6179 -0.3077
vn 0.2764 0.7456 -0.6064
vn 0.8944 0.4112 0.1758
vn -0.0000 0.9195 0.3930
vn -0.1624 -0.9785 0.1267
vn 0.4253 -0.9037 -0.0498
vn 0.2625 -0.8015 0.5374
vn 0.8504 -0.4837 -0.2068
vn 0.4254 -0.6609 -0.6182
vn -0.5259 -0.7821 -0.3343
vn -0.6879 -0.6801 0.2534
vn -0.1625 -0.5852 -0.7945
vn -0.6878 -0.2869 -0.6668
vn 0.2625 -0.1655 -0.9506
vn 0.9510 -0.1213 0.2844
vn 0.9511 0.1214 -0.2841
vn -0.0006 -0.3934 0.9194
vn 0.5877 -0.3180 0.7439
vn -0.9511 -0.1215 0.2840
vn -0.5873 -0.3179 0.7443
vn -0.5879 0.3179 -0.7438
vn -0.9510 0.1214 -0.2842
vn 0.5874 0.3181 -0.7442
vn 0.0004 0.3933 -0.9194
vn 0.6886 0.2868 0.6660
vn -0.2629 0.1655 0.9505
vn -0.8506 0.4832 0.2073
vn -0.2623 0.8014 -0.5376
vn 0.6883 0.6799 -0.2530
vn 0.1624 0.5862 0.7937
vn 0.5260 0.7821 0.3343
vn -0.4257 0.6609 0.6181
vn -0.4252 0.9037 0.0502
vn 0.1625 0.9787 -0.1253
vn -0.4909 -0.8711 0.0148
vn 0.7236 -0.6179 0.3077
vn -0.2764 -0.7455 0.6064
vn -0.7236 0.6178 -0.3077
vn 0.2764 0.7455 -0.6064
vn 0.2764 0.7455 -0.6065
vn -0.1624 -0.9787 0.1256
vn 0.4249 -0.9038 -0.0510
vn 0.2627 -0.8013 0.5375
vn 0.8509 -0.4831 -0.2064
vn 0.4251 -0.6609 -0.6184
vn -0.6882 -0.6799 0.2532
vn -0.1623 -0.5855 -0.7942
vn -0.6881 -0.2870 -0.6664
vn 0.2632 -0.1655 -0.9504
vn 0.9511 -0.1215 0.2840
vn 0.9511 0.1215 -0.2841
vn 0.0000 -0.3938 0.9192
vn 0.5880 -0.3179 0.7438
vn -0.9510 -0.1214 0.2843
vn -0.5880 -0.3184 0.7435
vn -0.5877 0.3180 -0.7440
vn -0.9511 0.1215 -0.2841
vn 0.5878 0.3179 -0.7439
vn -0.0003 0.3935 -0.9193
vn 0.6877 0.2869 0.6669
vn -0.8508 0.4832 0.2066
vn -0.2626 0.8014 -0.5374
vn 0.6881 0.6801 -0.2529
vn 0.1626 0.5853 0.7943
vn 0.5259 0.7821 0.3343
vn -0.4251 0.6606 0.6188
vn -0.4251 0.9037 0.0513
s off
f 6//1 4//1 27//1
f 2//2 16//2 22//2
f 5//3 10//3 12//3
f 3//4 21//4 28//4
f 13//5 9//5 32//5
f 8//6 51//6 33//6
f 7//7 26//7 52//7
f 14//8 31//8 38//8
f 19//9 36//9 43//9
f 24//10 41//10 48//10
f 18//11 15//11 37//11
f 23//12 20//12 42//12
f 29//13 25//13 47//13
f 30//14 46//14 53//14
f 34//15 55//15 57//15
f 39//16 35//16 56//16
f 44//17 40//17 60//17
f 49//18 45//18 59//18
f 54//19 50//19 58//19
f 3//20 4//20 5//20
f 7//21 8//21 9//21
f 13//22 14//22 15//22
f 18//23 19//23 20//23
f 23//24 24//24 25//24
f 27//25 28//25 29//25
f 34//26 31//26 33//26
f 38//27 39//27 40//27
f 44//28 41//28 43//28
f 48//29 49//29 50//29
f 54//30 51//30 53//30
f 57//31 58//31 59//31
f 1//32 12//32 11//32
f 4//33 10//33 5//33
f 13//34 10//34 9//34
f 7//35 27//35 26//35
f 28//36 4//36 3//36
f 16//37 1//37 17//37
f 18//38 11//38 15//38
f 21//39 2//39 22//39
f 20//40 22//40 16//40
f 29//41 21//41 25//41
f 51//42 7//42 52//42
f 53//43 26//43 30//43
f 31//44 13//44 32//44
f 8//45 32//45 9//45
f 36//46 18//46 37//46
f 38//47 15//47 14//47
f 41//48 23//48 42//48
f 43//49 20//49 19//49
f 30//50 47//50 46//50
f 48//51 25//51 24//51
f 34//52 51//52 55//52
f 35//53 38//53 31//53
f 44//54 36//54 40//54
f 49//55 41//55 45//55
f 50//56 53//56 46//56
f 35//57 57//57 56//57
f 54//58 57//58 55//58
f 60//59 39//59 56//59
f 45//60 60//60 59//60
f 58//61 49//61 59//61
f 1//62 11//62 17//62
f 5//20 1//20 2//20
f 2//20 3//20 5//20
f 10//21 6//21 9//21
f 6//63 7//63 9//63
f 15//64 11//64 12//64
f 12//64 13//64 15//64
f 20//23 16//23 17//23
f 17//23 18//23 20//23
f 25//24 21//24 22//24
f 22//24 23//24 25//24
f 30//25 26//25 29//25
f 26//25 27//25 29//25
f 35//26 31//26 34//26
f 31//26 32//26 33//26
f 40//27 36//27 37//27
f 37//27 38//27 40//27
f 45//65 41//65 44//65
f 41//65 42//65 43//65
f 50//66 46//66 48//66
f 46//67 47//67 48//67
f 55//30 51//30 54//30
f 51//30 52//30 53//30
f 60//31 56//31 59//31
f 56//31 57//31 59//31
f 1//68 5//68 12//68
f 4//69 6//69 10//69
f 13//70 12//70 10//70
f 7//71 6//71 27//71
f 28//72 27//72 4//72
f 16//37 2//37 1//37
f 18//73 17//73 11//73
f 21//74 3//74 2//74
f 20//75 23//75 22//75
f 29//76 28//76 21//76
f 51//77 8//77 7//77
f 53//78 52//78 26//78
f 31//79 14//79 13//79
f 8//80 33//80 32//80
f 36//81 19//81 18//81
f 38//82 37//82 15//82
f 41//83 24//83 23//83
f 43//84 42//84 20//84
f 30//85 29//85 47//85
f 48//86 47//86 25//86
f 34//87 33//87 51//87
f 35//53 39//53 38//53
f 44//88 43//88 36//88
f 49//89 48//89 41//89
f 50//90 54//90 53//90
f 35//91 34//91 57//91
f 54//92 58//92 57//92
f 60//93 40//93 39//93
f 45//94 44//94 60//94
f 58//61 50//61 49//61
