# Blender v3.3.1 OBJ File: 'untitled.blend'
# www.blender.org
o Solid
v 0.025835 1.854284 -6.127745
v 0.025834 1.854284 -5.286207
v 0.331441 1.835621 -5.713496
v -0.280092 1.756937 -5.699978
v 0.046928 1.023610 -5.738049
v -0.024802 5.113891 -5.706976
v 0.012038 2.887516 -5.462765
v 0.005929 2.991449 -5.970598
v -0.169982 2.996042 -5.709178
v 0.191486 3.068658 -5.711605
v 0.004504 3.581229 -5.729719
v 0.036360 1.222110 -5.706938
vn 0.7730 -0.2533 -0.5817
vn 0.7729 -0.2879 0.5654
vn -0.7123 -0.3492 0.6088
vn -0.7423 -0.2999 -0.5992
vn 0.8035 0.0885 -0.5888
vn 0.8121 0.0871 0.5770
vn -0.8095 0.0628 0.5837
vn -0.8184 0.0610 -0.5714
vn -0.7275 0.2395 0.6429
vn -0.8072 0.2215 -0.5471
vn 0.7496 0.2518 -0.6121
vn 0.6763 0.2709 0.6850
vn -0.8202 -0.0947 0.5642
vn -0.8265 -0.0968 -0.5545
vn 0.8207 -0.0704 -0.5670
vn 0.8322 -0.0685 0.5502
s off
f 5//1 1//1 3//1
f 5//2 3//2 2//2
f 5//3 2//3 4//3
f 5//4 4//4 1//4
f 6//5 3//5 1//5
f 6//6 2//6 3//6
f 6//7 4//7 2//7
f 6//8 1//8 4//8
f 11//9 9//9 7//9
f 11//10 8//10 9//10
f 11//11 10//11 8//11
f 11//12 7//12 10//12
f 12//13 7//13 9//13
f 12//14 9//14 8//14
f 12//15 8//15 10//15
f 12//16 10//16 7//16
