# Blender v3.3.1 OBJ File: 'untitled.blend'
# www.blender.org
o Icosphere
v -0.007853 0.855257 0.015578
v 0.935539 1.850270 1.329379
v -0.969089 1.850270 1.308432
v -1.545336 1.850270 -0.499209
v 0.003193 1.850270 -1.595424
v 1.536437 1.850270 -0.465287
v -0.018898 3.460244 1.626579
v -1.552143 3.460244 0.496442
v -0.951245 3.460244 -1.298224
v 0.953383 3.460244 -1.277277
v 1.529630 3.460244 0.530364
v -0.007853 4.455257 0.015578
vn -0.0067 -0.7948 0.6068
vn 0.5731 -0.7967 0.1919
vn -0.5767 -0.7960 0.1838
vn -0.3497 -0.7960 -0.4940
vn 0.3600 -0.7948 -0.4885
vn 0.9312 -0.1889 0.3118
vn -0.0108 -0.1877 0.9822
vn -0.9357 -0.1884 0.2983
vn -0.5674 -0.1884 -0.8016
vn 0.5828 -0.1877 -0.7907
vn 0.5674 0.1884 0.8016
vn -0.5828 0.1877 0.7907
vn -0.9312 0.1889 -0.3118
vn 0.0108 0.1877 -0.9822
vn 0.9357 0.1884 -0.2983
vn 0.3497 0.7960 0.4940
vn -0.3600 0.7948 0.4885
vn -0.5731 0.7967 -0.1919
vn 0.0067 0.7948 -0.6068
vn 0.5767 0.7960 -0.1838
s off
f 1//1 2//1 3//1
f 2//2 1//2 6//2
f 1//3 3//3 4//3
f 1//4 4//4 5//4
f 1//5 5//5 6//5
f 2//6 6//6 11//6
f 3//7 2//7 7//7
f 4//8 3//8 8//8
f 5//9 4//9 9//9
f 6//10 5//10 10//10
f 2//11 11//11 7//11
f 3//12 7//12 8//12
f 4//13 8//13 9//13
f 5//14 9//14 10//14
f 6//15 10//15 11//15
f 7//16 11//16 12//16
f 8//17 7//17 12//17
f 9//18 8//18 12//18
f 10//19 9//19 12//19
f 11//20 10//20 12//20
